<svg xmlns="http://www.w3.org/2000/svg" viewBox="0 0 16 16"><defs><style>.cls-1{fill:#e01f26;}</style></defs><g id="Layer_2" data-name="Layer 2"><g id="Layer_1-2" data-name="Layer 1"><path class="cls-1" d="M.09,16,7.78,9.78a.05.05,0,0,1,.09,0l.71,1.62a.05.05,0,0,0,.1,0L9.36,9.8a.07.07,0,0,1,.09,0l4.94,4.08s.12,0,.08-.09l-4-5.39a.07.07,0,0,1,0-.09l1.12-.79a.07.07,0,0,0,0-.1l-.94-.83a.06.06,0,0,1,0-.09L16,.11C16,.05,16,0,15.91,0L9.18,4.85a.06.06,0,0,1-.09,0L8.4,3a.06.06,0,0,0-.11,0L7.64,4.86a.05.05,0,0,1-.09,0L2.45,1.1c-.05,0-.12,0-.08.09L6.31,6.65a.05.05,0,0,1,0,.09l-1,.5a.07.07,0,0,0,0,.11l.9.75a.07.07,0,0,1,0,.09L0,15.89C0,16,0,16,.09,16Z"/></g></g></svg>