<?xml version="1.0" encoding="utf-8"?>
<!-- Generator: Adobe Illustrator 24.3.0, SVG Export Plug-In . SVG Version: 6.00 Build 0)  -->
<svg version="1.1" id="Layer_1" xmlns="http://www.w3.org/2000/svg" xmlns:xlink="http://www.w3.org/1999/xlink" x="0px" y="0px"
	 viewBox="0 0 48 48" style="enable-background:new 0 0 48 48;" xml:space="preserve">
<style type="text/css">
	.st0{stroke:#000000;stroke-miterlimit:10;}
</style>
<path class="st0" d="M24,2c-4.4,0-8.6,1.3-12.2,3.7c-3.6,2.4-6.4,5.9-8.1,9.9C2,19.6,1.6,24,2.4,28.3c0.8,4.3,2.9,8.2,6,11.3
	c3.1,3.1,7,5.2,11.3,6c4.3,0.8,8.7,0.4,12.7-1.3c4-1.7,7.5-4.5,9.9-8.1C44.7,32.6,46,28.4,46,24c0-5.8-2.3-11.4-6.5-15.5
	C35.4,4.3,29.8,2,24,2L24,2z M42.3,32h-6.2c0.5-2.3,0.8-4.6,0.8-7h7C43.8,27.4,43.3,29.8,42.3,32z M4.1,25h7c0.1,2.4,0.3,4.7,0.8,7
	H5.7C4.7,29.8,4.2,27.4,4.1,25L4.1,25z M5.7,16h6.2c-0.5,2.3-0.8,4.6-0.8,7h-7C4.2,20.6,4.7,18.2,5.7,16L5.7,16z M25,14V4.1
	c3.6,0.6,6.8,4.4,8.5,9.9H25z M34.1,16c0.5,2.3,0.8,4.6,0.9,7H25v-7H34.1z M23,4.1V14h-8.5C16.2,8.5,19.4,4.7,23,4.1z M23,16v7H13
	c0.1-2.4,0.4-4.7,0.9-7H23z M13,25h10v7h-9.1C13.4,29.7,13.1,27.4,13,25L13,25z M23,34v9.9c-3.6-0.6-6.8-4.4-8.5-9.9H23z M25,43.9
	V34h8.5C31.8,39.5,28.6,43.3,25,43.9z M25,32v-7h10c-0.1,2.4-0.4,4.7-0.9,7H25z M37,23c-0.1-2.4-0.3-4.7-0.8-7h6.2
	c1,2.2,1.5,4.6,1.6,7H37z M41.3,14h-5.7c-0.9-3.3-2.5-6.3-4.8-8.8C35.2,6.8,38.9,10,41.3,14L41.3,14z M17.1,5.2
	c-2.3,2.5-3.9,5.5-4.8,8.8H6.7C9.1,10,12.8,6.8,17.1,5.2L17.1,5.2z M6.7,34h5.7c0.9,3.3,2.5,6.3,4.8,8.8C12.8,41.2,9.1,38,6.7,34
	L6.7,34z M30.9,42.8c2.3-2.5,3.9-5.5,4.8-8.8h5.7C38.9,38,35.2,41.2,30.9,42.8z"/>
</svg>
