<svg xmlns="http://www.w3.org/2000/svg" data-name="Layer 1" viewBox="0 0 100 125" x="0px" y="0px"><title>web</title><g data-name="Go to Web"><path d="M50,0a50,50,0,1,1-50,50A50,50,0,0,1,50,0ZM86.73,23.78A66.7,66.7,0,0,1,74.5,30.25a63.37,63.37,0,0,1,3.17,17.26H95.06A45.08,45.08,0,0,0,86.73,23.78Zm-73.44,0A45,45,0,0,0,5,47.52H22.33a63.4,63.4,0,0,1,3.17-17.27A66.63,66.63,0,0,1,13.28,23.78ZM86.73,76.22a45,45,0,0,0,8.33-23.73H77.69a63.25,63.25,0,0,1-3,17.31A66.61,66.61,0,0,1,86.73,76.22ZM5,52.47a45.06,45.06,0,0,0,8.33,23.75A66.61,66.61,0,0,1,25.37,69.8a63.28,63.28,0,0,1-3.05-17.33H5Zm42.56,12.6V52.48H27.28C27,55.27,28.87,66,30,68.13A65.81,65.81,0,0,1,47.52,65.08ZM72.8,52.49H52.49V65.08A66,66,0,0,1,70,68.15,58.54,58.54,0,0,0,72.8,52.49Zm-25.27-5V34.92a66.09,66.09,0,0,1-17.36-3c-1.32,2.83-3.28,13.69-2.84,15.62h20.2ZM69.89,31.89a66.19,66.19,0,0,1-17.4,3V47.52H72.78A58.66,58.66,0,0,0,69.89,31.89ZM31.67,72.78A58.71,58.71,0,0,0,47.52,94.61V70C44.45,69.8,34.75,71.49,31.67,72.78ZM52.48,94.63A58.81,58.81,0,0,0,68.35,72.74,61.5,61.5,0,0,0,52.48,70V94.63ZM31.85,27.28c3.57,1.34,13.27,3,15.67,2.69V5.88A58.77,58.77,0,0,0,31.85,27.28Zm36.33,0A58.77,58.77,0,0,0,52.49,5.88V30A61.64,61.64,0,0,0,68.18,27.31ZM27.23,25.66a64.36,64.36,0,0,1,5.6-10.45A67.79,67.79,0,0,1,40.2,6a44.9,44.9,0,0,0-23.85,14A60.5,60.5,0,0,0,27.23,25.66ZM59.81,6a64.57,64.57,0,0,1,13,19.67,60.13,60.13,0,0,0,10.88-5.72A45,45,0,0,0,59.81,6Zm0.68,87.83A44.7,44.7,0,0,0,83.66,80.06,60.21,60.21,0,0,0,73,74.41,65.35,65.35,0,0,1,60.49,93.82ZM16.35,80.06A44.76,44.76,0,0,0,39.53,93.83,65.23,65.23,0,0,1,27.05,74.41,61.07,61.07,0,0,0,16.35,80.06Z"/></g><text x="0" y="115" fill="#000000" font-size="5px" font-weight="bold" font-family="'Helvetica Neue', Helvetica, Arial-Unicode, Arial, Sans-serif">Created by i cons</text><text x="0" y="120" fill="#000000" font-size="5px" font-weight="bold" font-family="'Helvetica Neue', Helvetica, Arial-Unicode, Arial, Sans-serif">from the Noun Project</text></svg>